<svg fill="#1C2033" width="52" height="52" viewBox="0 0 64 64" xmlns="http://www.w3.org/2000/svg"><path d="M32.0008 1.7998C15.3008 1.7998 1.80078 15.2998 1.80078 31.9998C1.80078 48.6998 15.3008 62.2998 32.0008 62.2998C48.7008 62.2998 62.3008 48.6998 62.3008 31.9998C62.3008 15.2998 48.7008 1.7998 32.0008 1.7998ZM57.7008 32.8998C51.8008 32.4998 45.6008 33.0998 39.5008 34.5998C38.6008 32.1998 37.7008 29.8998 36.7008 27.5998C43.0008 25.4998 48.9008 22.3998 54.0008 18.6998C56.4008 22.5998 57.7008 27.1998 57.7008 32.0998C57.8008 32.2998 57.7008 32.5998 57.7008 32.8998ZM51.3008 14.9998C46.5008 18.5998 40.8008 21.4998 34.7008 23.3998C31.5008 16.9998 27.9008 11.5998 24.1008 7.39981C26.6008 6.59981 29.2008 6.1998 32.0008 6.1998C39.7008 6.2998 46.6008 9.6998 51.3008 14.9998ZM19.7008 9.3998C23.5008 13.1998 27.1008 18.3998 30.3008 24.6998C22.4008 26.5998 14.3008 26.8998 7.00078 25.5998C8.90078 18.5998 13.5008 12.7998 19.7008 9.3998ZM6.30078 29.9998C9.60078 30.6998 13.0008 30.9998 16.4008 30.9998C21.6008 30.9998 27.0008 30.2998 32.3008 28.8998C33.3008 31.0998 34.3008 33.3998 35.1008 35.7998C26.3008 38.5998 18.5008 42.9998 12.3008 48.6998C8.60078 44.0998 6.30078 38.2998 6.30078 31.9998C6.30078 31.2998 6.30078 30.6998 6.30078 29.9998ZM15.5008 51.7998C21.2008 46.5998 28.5008 42.4998 36.6008 39.9998C36.9008 40.9998 37.2008 41.9998 37.5008 42.8998C38.8008 47.3998 39.8008 51.8998 40.5008 56.1998C37.8008 57.0998 35.0008 57.6998 32.0008 57.6998C25.7008 57.7998 20.0008 55.4998 15.5008 51.7998ZM44.8008 54.2998C44.1008 50.1998 43.1008 45.8998 41.9008 41.5998C41.6008 40.5998 41.3008 39.6998 41.0008 38.6998C46.4008 37.3998 52.0008 36.8998 57.2008 37.1998C55.7008 44.5998 51.0008 50.6998 44.8008 54.2998Z"/></svg>