<svg fill="#e53e3e" width="52" height="52" viewBox="0 0 64 64" xmlns="http://www.w3.org/2000/svg"><path d="M25.2955 2.24105C27.3025 1.77299 29.3528 1.49569 31.4084 1.39149C38.8325 1.38442 46.2566 1.38795 53.6807 1.38972C56.3414 1.41621 59.0092 1.30671 61.6682 1.448C61.67 11.641 61.6734 21.8358 61.6665 32.0288C61.6613 37.7656 60.084 43.5023 57.098 48.3754C53.6894 53.9656 48.4548 58.4183 42.375 60.7073C39.3786 61.8925 36.1769 62.4594 32.9753 62.6202C29.6728 62.6837 26.3511 62.2086 23.2034 61.1913C17.381 59.2961 12.1969 55.4739 8.5709 50.479C5.9762 46.973 4.17626 42.87 3.28064 38.5833C1.91199 32.1577 2.59719 25.2853 5.25971 19.2889C8.89958 10.8939 16.4819 4.34111 25.2955 2.24105ZM32.7423 9.24068C32.7318 16.6059 32.7318 23.9712 32.7423 31.3364C39.8481 31.3435 46.9522 31.3453 54.0581 31.3364C54.0633 23.9712 54.0668 16.6059 54.0563 9.24244C46.9522 9.23891 39.8464 9.24068 32.7423 9.24068ZM10.1952 32.6275C10.1309 33.4365 10.2317 34.2454 10.3239 35.0473C11.0369 40.5633 13.7899 45.7949 17.9688 49.4016C21.6905 52.678 26.5408 54.6297 31.4727 54.7286C31.4797 47.3722 31.4727 40.014 31.4763 32.6576C24.3826 32.6134 17.2888 32.6752 10.1952 32.6275ZM32.7475 32.6876C32.7301 40.0564 32.7248 47.4269 32.7509 54.7957C33.9822 54.718 35.2152 54.6138 36.4238 54.3541C41.4307 53.3368 46.0027 50.3977 49.173 46.3513C52.2146 42.5009 53.9485 37.6225 54.0511 32.6894C46.9505 32.6858 39.8498 32.6876 32.7475 32.6876Z"/></svg>